<?xml version="1.0" encoding="UTF-8"?>
<svg xmlns="http://www.w3.org/2000/svg" version="1.2" width="1000" height="1000" baseProfile="tiny-ps" viewBox="0 0 1000 1000">
<path d="M0 0 C330 0 660 0 1000 0 C1000 330 1000 660 1000 1000 C670 1000 340 1000 0 1000 C0 670 0 340 0 0 Z " fill="#6127E2" transform="translate(0,0)"/>
<path d="M0 0 C1.13373311 0.00436926 1.13373311 0.00436926 2.29036993 0.00882679 C3.48609063 0.00754515 3.48609063 0.00754515 4.70596731 0.00623763 C7.39769296 0.00458039 10.08935734 0.01010815 12.78107733 0.01555592 C14.70238265 0.01583776 16.62368808 0.01568011 18.54499334 0.01511341 C23.77824765 0.01482533 29.01147926 0.02072372 34.24472827 0.02768737 C39.70735921 0.03391921 45.16999062 0.03452457 50.63262457 0.03571278 C60.98468355 0.0388266 71.33673204 0.04704067 81.68878639 0.05706227 C93.47092983 0.06822184 105.25307376 0.07373346 117.03522116 0.0787577 C141.27920704 0.08922324 165.52318359 0.10682366 189.76716131 0.12908131 C190.89055951 2.36884358 192.01319624 4.60898212 193.13540167 6.84934193 C193.45160483 7.47957374 193.76780799 8.10980556 194.09359306 8.75913531 C196.35069545 13.26723146 198.52380134 17.80111602 200.59138006 22.39861256 C201.06170408 23.43558529 201.06170408 23.43558529 201.5415296 24.49350697 C202.51510928 26.64172824 203.48494398 28.7916143 204.45466131 30.94158131 C205.11132018 32.3915608 205.76822046 33.84143098 206.42536443 35.29119068 C207.67013669 38.03824115 208.9099371 40.78744664 210.14582342 43.53850514 C211.11509423 45.68502913 212.09426825 47.82718641 213.09357733 49.95989186 C215.66333346 55.48827519 216.98578587 59.99429612 215.76716131 66.12908131 C213.73197761 70.03052042 210.81088483 72.45858373 206.76716131 74.12908131 C204.80891663 74.38208097 204.80891663 74.38208097 202.715352 74.38635021 C201.91339041 74.39279911 201.11142882 74.399248 200.28516537 74.40589231 C199.40988229 74.40279511 198.53459922 74.3996979 197.63279241 74.39650685 C196.69847462 74.40103796 195.76415682 74.40556907 194.80152637 74.41023749 C191.66323105 74.42292216 188.52510837 74.4212585 185.38679022 74.41960865 C183.13980409 74.42559134 180.89282002 74.43239628 178.64583868 74.43996388 C172.53635243 74.45765701 166.42692218 74.46232064 160.31741279 74.46359545 C155.22036336 74.46549281 150.12332701 74.47284844 145.02628261 74.47993964 C133.68977967 74.49530256 122.35331145 74.50127643 111.01680161 74.49992894 C110.33661758 74.49984902 109.65643354 74.49976911 108.95563787 74.49968678 C108.27462296 74.49960502 107.59360804 74.49952325 106.89195631 74.49943902 C95.85461144 74.49862608 84.81740302 74.51776576 73.78009762 74.54596351 C62.4459035 74.57469117 51.11179664 74.58813759 39.77755767 74.58677596 C33.41469199 74.58626551 27.05198073 74.59199443 20.68914694 74.61313206 C14.70552212 74.63246674 8.72219978 74.63267143 2.73856443 74.6180988 C0.54154864 74.61600371 -1.65548585 74.62075302 -3.8524695 74.63281971 C-6.85017152 74.6482188 -9.84682366 74.63899896 -12.84450251 74.62355763 C-13.71532414 74.63384475 -14.58614577 74.64413188 -15.48335594 74.65473074 C-20.88684078 74.59315931 -23.93853755 73.70613689 -28.23283869 70.12908131 C-31.32476516 66.72003417 -32.22558635 65.0011755 -32.26408869 60.37126881 C-31.27936735 53.05143278 -27.50624447 46.49979636 -24.29533869 39.94158131 C-23.6120551 38.52163834 -22.93026282 37.10097684 -22.24992853 35.67961842 C-21.22548376 33.53958691 -20.20023489 31.40000127 -19.16997248 29.26276356 C-15.689765 22.0382051 -12.3904812 14.73515866 -9.11589533 7.41545826 C-8.74456476 6.59005543 -8.3732342 5.7646526 -7.99065119 4.91423756 C-7.67241389 4.20146656 -7.35417658 3.48869557 -7.02629572 2.75432545 C-5.38643079 -0.60462251 -3.53017473 0.01031738 0 0 Z " fill="#FCFCFE" transform="translate(606.2328386902809,449.8709186911583)"/>
<path d="M0 0 C52.47 0 104.94 0 159 0 C159 31.68 159 63.36 159 96 C106.53 96 54.06 96 0 96 C0 64.32 0 32.64 0 0 Z " fill="#412DE8" transform="translate(619,327)"/>
<path d="M0 0 C1.07577593 -0.00679667 1.07577593 -0.00679667 2.17328471 -0.01373065 C4.5768262 -0.02639241 6.98014161 -0.02475315 9.38371277 -0.02310181 C11.10691622 -0.029086 12.83011698 -0.03589129 14.55331421 -0.04345703 C19.23523053 -0.06113647 23.91707377 -0.06581326 28.59902024 -0.0670886 C32.50799033 -0.06898756 36.4169434 -0.07634516 40.32590693 -0.08343279 C49.5496114 -0.09972212 58.77327682 -0.10460129 67.99699402 -0.10317993 C77.50938448 -0.10197868 87.02154798 -0.12307601 96.53388101 -0.15466726 C104.70216718 -0.18082741 112.87037922 -0.19154732 121.03870696 -0.19026911 C125.91659023 -0.18975936 130.79427189 -0.19544999 135.67211342 -0.21662521 C140.26127259 -0.23600291 144.85003774 -0.2361353 149.43921089 -0.22159195 C151.12140224 -0.21950209 152.80361822 -0.22421532 154.48576736 -0.23631287 C156.78695251 -0.25178739 159.08678276 -0.24244412 161.38793945 -0.22705078 C163.3172945 -0.22868508 163.3172945 -0.22868508 165.28562641 -0.2303524 C170.6620614 0.51330014 174.34486427 2.32133612 177.79939747 6.68799877 C178.99004315 9.518458 179.25459098 11.47651481 179.24520874 14.53825378 C179.24934123 15.57791448 179.25347372 16.61757517 179.25773144 17.68874073 C179.24693711 18.82305877 179.23614279 19.9573768 179.22502136 21.12606812 C179.22538297 22.34586963 179.22574457 23.56567114 179.22611713 24.82243633 C179.22462912 27.44611653 179.21780554 30.06908282 179.20117188 32.69264221 C179.17866387 36.45312745 179.17085663 40.21330116 179.16825867 43.97384644 C179.1525326 53.00924949 179.11064897 62.0445917 179.07194519 71.07992554 C179.01007019 91.27180054 178.94819519 111.46367554 178.88444519 132.26742554 C114.53444519 132.26742554 50.18444519 132.26742554 -16.11555481 132.26742554 C-16.21867981 111.93117554 -16.32180481 91.59492554 -16.42805481 70.64242554 C-16.47357483 64.22337769 -16.51909485 57.80432983 -16.56599426 51.19076538 C-16.58857727 43.34677124 -16.58857727 43.34677124 -16.59277344 39.67358398 C-16.60246234 36.43722247 -16.63064903 33.20153898 -16.66463786 29.96535909 C-16.69137583 26.75405413 -16.68475549 23.54278721 -16.68318176 20.33139038 C-16.7011723 19.19130209 -16.71916285 18.0512138 -16.73769855 16.87657738 C-16.68120732 8.26909989 -16.68120732 8.26909989 -13.83007812 4.63842773 C-9.15360012 0.55375491 -6.23582622 0.01626368 0 0 Z M1.88444519 18.26742554 C1.88444519 49.94742554 1.88444519 81.62742554 1.88444519 114.26742554 C54.35444519 114.26742554 106.82444519 114.26742554 160.88444519 114.26742554 C160.88444519 82.58742554 160.88444519 50.90742554 160.88444519 18.26742554 C108.41444519 18.26742554 55.94444519 18.26742554 1.88444519 18.26742554 Z " fill="#FDFDFE" transform="translate(617.1155548095703,308.7325744628906)"/>
<path d="M0 0 C14.46007215 3.70427774 33.1025273 3.8198301 46.796875 -3.02734375 C53.07238786 -3.84386029 57.65746015 -3.18565484 63.0078125 0.1953125 C68.21891169 5.37227786 69.73917325 11.65234983 71.234375 18.59765625 C71.65314263 20.45323863 72.07242963 22.30870387 72.4921875 24.1640625 C72.80978027 25.59129639 72.80978027 25.59129639 73.13378906 27.04736328 C73.80252442 29.99757942 74.50769636 32.93662244 75.2265625 35.875 C75.45802979 36.82358887 75.68949707 37.77217773 75.92797852 38.74951172 C76.37409884 40.57331426 76.82241957 42.39658031 77.27319336 44.21923828 C77.57302124 45.46036377 77.57302124 45.46036377 77.87890625 46.7265625 C78.05655518 47.45174072 78.2342041 48.17691895 78.41723633 48.92407227 C78.796875 50.97265625 78.796875 50.97265625 78.796875 54.97265625 C81.766875 54.31265625 84.736875 53.65265625 87.796875 52.97265625 C87.466875 51.92078125 87.136875 50.86890625 86.796875 49.78515625 C85.95720718 46.58392268 85.59936596 44.23155545 85.796875 40.97265625 C90.78179389 40.65005749 94.68189969 41.71734861 99.234375 43.59765625 C99.89381104 43.86908447 100.55324707 44.1405127 101.23266602 44.42016602 C106.40713141 46.64035851 110.17818296 48.64787795 113.796875 52.97265625 C114.734375 56.47265625 114.734375 56.47265625 113.796875 59.97265625 C103.18653385 73.31042052 76.16171913 75.46319645 60.64038086 77.31542969 C26.46256629 80.93663243 -9.35437734 81.34882862 -43.203125 74.97265625 C-44.54914795 74.72443115 -44.54914795 74.72443115 -45.92236328 74.47119141 C-72.33896079 69.41664057 -72.33896079 69.41664057 -79.203125 59.97265625 C-80.078125 56.47265625 -80.078125 56.47265625 -79.203125 52.97265625 C-74.41980288 46.39157548 -65.14752831 42.91975322 -57.4296875 41.44140625 C-55.3615869 41.20654309 -53.28192208 41.0765961 -51.203125 40.97265625 C-51.34407564 42.59808705 -51.49104587 44.22299676 -51.640625 45.84765625 C-51.72183594 46.75257813 -51.80304688 47.6575 -51.88671875 48.58984375 C-52.203125 50.97265625 -52.203125 50.97265625 -53.203125 52.97265625 C-50.233125 53.63265625 -47.263125 54.29265625 -44.203125 54.97265625 C-44.0695459 53.95389404 -43.9359668 52.93513184 -43.79833984 51.88549805 C-43.25459034 48.31098067 -42.53645913 44.87769247 -41.6796875 41.3671875 C-41.380625 40.13548828 -41.0815625 38.90378906 -40.7734375 37.63476562 C-40.46148437 36.36439453 -40.14953125 35.09402344 -39.828125 33.78515625 C-39.52390625 32.53412109 -39.2196875 31.28308594 -38.90625 29.99414062 C-38.30195763 27.51370123 -37.6945078 25.03402871 -37.08374023 22.55517578 C-36.50573742 20.20374431 -35.93470137 17.85058717 -35.37133789 15.49560547 C-35.11344482 14.42971191 -34.85555176 13.36381836 -34.58984375 12.265625 C-34.25279419 10.85639771 -34.25279419 10.85639771 -33.90893555 9.41870117 C-32.54625063 4.69620371 -30.18354588 1.88133902 -26.640625 -1.40234375 C-17.94593277 -5.51256189 -8.79847787 -2.43263701 0 0 Z " fill="#FEFDFE" transform="translate(257.203125,320.02734375)"/>
<path d="M0 0 C10.6425 -0.061875 21.285 -0.12375 32.25 -0.1875 C35.58641602 -0.21481201 38.92283203 -0.24212402 42.36035156 -0.27026367 C45.03710571 -0.27903447 47.71386388 -0.286677 50.390625 -0.29296875 C51.06913513 -0.30080887 51.74764526 -0.30864899 52.44671631 -0.31672668 C66.05130568 -0.46580246 77.84138294 1.40094907 89.1875 9.1875 C95.94700509 15.94700509 99.01959777 24.26729022 99.3125 33.75 C99.10332352 43.60590347 96.70538987 52.54790748 90 60 C83.71194379 65 83.71194379 65 80 65 C80.5576001 65.87398437 80.5576001 65.87398437 81.12646484 66.765625 C87.39866488 76.6001254 93.6704965 86.43509643 99.875 96.3125 C100.29700684 96.98087891 100.71901367 97.64925781 101.15380859 98.33789062 C104 102.88310253 104 102.88310253 104 104 C90.8 104 77.6 104 64 104 C58.3125 93.0625 58.3125 93.0625 56.55200195 89.67211914 C53.75468324 84.30200772 50.90558292 78.98077049 47.87182617 73.73999023 C47 72 47 72 47 70 C43.37 70 39.74 70 36 70 C36 81.22 36 92.44 36 104 C24.12 104 12.24 104 0 104 C0 69.68 0 35.36 0 0 Z " fill="#FDFDFE" transform="translate(506,585)"/>
<path d="M0 0 C10.6425 -0.061875 21.285 -0.12375 32.25 -0.1875 C35.58641602 -0.21481201 38.92283203 -0.24212402 42.36035156 -0.27026367 C45.03710571 -0.27903447 47.71386388 -0.286677 50.390625 -0.29296875 C51.06913513 -0.30080887 51.74764526 -0.30864899 52.44671631 -0.31672668 C66.26212145 -0.46811253 79.69464512 0.98159674 90.25 10.625 C97.14415369 18.08914277 98.34750181 25.16101019 98.5 35.0625 C98.52803711 36.32078613 98.52803711 36.32078613 98.55664062 37.60449219 C98.4623519 46.86291945 94.96826578 53.62887463 88.7421875 60.3359375 C86.1370922 62.82421238 83.70904099 65 80 65 C86.45007924 75.7027367 93.05535692 86.27857034 99.93432617 96.71191406 C100.46517822 97.51983398 100.99603027 98.32775391 101.54296875 99.16015625 C102.01758545 99.87824463 102.49220215 100.59633301 102.98120117 101.33618164 C104 103 104 103 104 104 C90.8 104 77.6 104 64 104 C61.56625 99.50375 59.1325 95.0075 56.625 90.375 C55.86010254 88.96782715 55.09520508 87.5606543 54.30712891 86.11083984 C53.70304199 84.98887207 53.09895508 83.8669043 52.4765625 82.7109375 C51.85861816 81.56931152 51.24067383 80.42768555 50.60400391 79.25146484 C49.10253381 76.20784555 47.9837006 73.24320504 47 70 C43.37 70 39.74 70 36 70 C36 81.22 36 92.44 36 104 C24.12 104 12.24 104 0 104 C0 69.68 0 35.36 0 0 Z " fill="#FDFDFE" transform="translate(829,585)"/>
<path d="M0 0 C10.6425 -0.061875 21.285 -0.12375 32.25 -0.1875 C35.58641602 -0.21481201 38.92283203 -0.24212402 42.36035156 -0.27026367 C45.03710571 -0.27903447 47.71386388 -0.286677 50.390625 -0.29296875 C51.06913513 -0.30080887 51.74764526 -0.30864899 52.44671631 -0.31672668 C65.70894372 -0.46205094 79.03692963 0.69353368 89.2265625 10.04296875 C96.04034713 17.24080306 98.57228354 23.95738209 98.4375 33.8125 C98.42920166 34.59931152 98.42090332 35.38612305 98.41235352 36.19677734 C98.13165411 45.92436039 95.52791286 53.30016851 88.7421875 60.40625 C86.09709643 62.82597457 83.69195911 65 80 65 C85.92973296 75.07113376 92.11080694 84.95841405 98.47705078 94.76025391 C99.06341309 95.67081543 99.64977539 96.58137695 100.25390625 97.51953125 C100.78314697 98.33526611 101.3123877 99.15100098 101.85766602 99.99145508 C103 102 103 102 103 104 C90.13 104 77.26 104 64 104 C62.515 101.339375 61.03 98.67875 59.5 95.9375 C59.00435547 95.05964844 58.50871094 94.18179688 57.99804688 93.27734375 C55.82366942 89.40661992 53.7439171 85.54286762 51.90625 81.5 C51.58205078 80.81301025 51.25785156 80.12602051 50.92382812 79.41821289 C50.32286906 78.12974015 49.75188073 76.82671512 49.21679688 75.50952148 C48.32736159 73.44634176 48.32736159 73.44634176 46 71 C42.7 70.67 39.4 70.34 36 70 C36 81.22 36 92.44 36 104 C24.12 104 12.24 104 0 104 C0 69.68 0 35.36 0 0 Z " fill="#FEFDFE" transform="translate(185,585)"/>
<path d="M0 0 C12.21 0 24.42 0 37 0 C37.33 12.21 37.66 24.42 38 37 C42.8162446 30.06201404 42.8162446 30.06201404 47.63037109 23.12255859 C48.98625381 21.17144441 50.36309543 19.23483009 51.75341797 17.30810547 C53.38139935 14.91089315 54.73108836 12.67797093 56.06298828 10.13330078 C61.15261537 0.95781739 61.15261537 0.95781739 66.10675049 -0.7086792 C72.10685707 -1.72942475 78.08534973 -1.27902276 84.125 -0.875 C85.95809455 -0.80467088 87.79144933 -0.74081047 89.625 -0.68359375 C94.08982584 -0.53028107 98.54201638 -0.28947946 103 0 C99.5139013 5.34730181 95.93894477 10.52714584 91.9375 15.5 C90.99305109 16.69626853 90.04906276 17.89290078 89.10546875 19.08984375 C87.48402861 21.13811733 85.85510111 23.17935148 84.21337891 25.21142578 C82.37878415 27.4846964 80.56365346 29.77250604 78.75 32.0625 C77.87202759 33.13371094 77.87202759 33.13371094 76.97631836 34.2265625 C76.44272705 34.90589844 75.90913574 35.58523438 75.359375 36.28515625 C74.87952148 36.88207275 74.39966797 37.47898926 73.90527344 38.09399414 C72.61946619 40.80119403 73.10608105 42.16706567 74 45 C74.91030864 46.96564364 75.89233713 48.89878391 76.921875 50.8046875 C77.52926514 51.93487305 78.13665527 53.06505859 78.76245117 54.22949219 C79.42470659 55.44480364 80.0872288 56.65996975 80.75 57.875 C81.42652078 59.12644785 82.10270533 60.37807751 82.77856445 61.62988281 C87.66882806 70.66247457 92.67758984 79.62749025 97.78613281 88.53857422 C98.28338867 89.40756348 98.78064453 90.27655273 99.29296875 91.171875 C99.7211792 91.9153418 100.14938965 92.65880859 100.59057617 93.42480469 C102.49153511 96.89809672 104.2292712 100.4585424 106 104 C92.47 104 78.94 104 65 104 C58.50486468 91.7415756 52.15043445 79.434574 46 67 C39.15558225 73.52713652 39.15558225 73.52713652 37.48828125 82.515625 C37.43861206 84.20606934 37.43861206 84.20606934 37.38793945 85.93066406 C37.36304443 87.35604492 37.33814941 88.78142578 37.3125 90.25 C37.209375 94.7875 37.10625 99.325 37 104 C24.79 104 12.58 104 0 104 C0 69.68 0 35.36 0 0 Z " fill="#FDFDFE" transform="translate(617,585)"/>
<path d="M0 0 C1.17626953 0.00128906 2.35253906 0.00257813 3.56445312 0.00390625 C14.41432927 0.11186522 24.57849526 0.92558332 34.25 6.125 C34.92933594 6.47626953 35.60867188 6.82753906 36.30859375 7.18945312 C41.08338995 9.72894415 45.09697517 12.53447517 48.9375 16.375 C44.02283934 24.40280583 38.67250429 31.92339579 32.9375 39.375 C32.39222656 38.98828125 31.84695313 38.6015625 31.28515625 38.203125 C22.36984272 32.04622472 14.44034338 28.19668585 3.5 28.1875 C2.73623047 28.17525391 1.97246094 28.16300781 1.18554688 28.15039062 C-4.21309171 28.12787566 -4.21309171 28.12787566 -9.0625 30.375 C-9.0625 31.695 -9.0625 33.015 -9.0625 34.375 C-8.32837891 34.5201001 -7.59425781 34.6652002 -6.83789062 34.81469727 C33.97318692 43.01460616 33.97318692 43.01460616 42.67578125 55.9609375 C47.86411921 65.04947435 48.2961014 73.53455956 45.9375 83.625 C43.05344285 91.91329509 36.79488865 97.57226215 29.07421875 101.38671875 C28.36910156 101.71285156 27.66398437 102.03898438 26.9375 102.375 C25.865 102.931875 24.7925 103.48875 23.6875 104.0625 C5.12968763 110.55773433 -19.06744287 109.51565194 -36.92578125 101.2109375 C-41.11709888 99.12256421 -45.1630123 96.97306358 -49.0625 94.375 C-50.0625 91.375 -50.0625 91.375 -49.21386719 89.46142578 C-48.76688477 88.7548584 -48.31990234 88.04829102 -47.859375 87.3203125 C-47.37339844 86.54042969 -46.88742187 85.76054688 -46.38671875 84.95703125 C-45.60748047 83.74080078 -45.60748047 83.74080078 -44.8125 82.5 C-44.30847656 81.69691406 -43.80445313 80.89382813 -43.28515625 80.06640625 C-42.31295638 78.51752089 -41.33719474 76.9708639 -40.35742188 75.42675781 C-38.88786224 73.09829267 -37.46355269 70.74527408 -36.0625 68.375 C-32.74824159 68.98902555 -30.74543368 70.18038105 -28.0625 72.1875 C-18.52713585 78.64292598 -8.48112201 80.6009694 2.9375 79.375 C5.74454267 78.4416771 5.74454267 78.4416771 7.9375 77.375 C7.9375 76.055 7.9375 74.735 7.9375 73.375 C1.72424777 71.11614511 -4.37409818 69.64618013 -10.875 68.5 C-22.40926916 66.30324939 -33.74823285 63.21634748 -42.0625 54.375 C-47.17177742 46.43540344 -49.12206732 38.7682429 -48.0625 29.375 C-44.87955036 18.63749768 -39.7916274 12.22907543 -30.5625 6.0859375 C-20.51478197 1.1742182 -11.09321478 -0.2317439 0 0 Z " fill="#FDFCFE" transform="translate(340.0625,583.625)"/>
<path d="M0 0 C28.71 0 57.42 0 87 0 C87 8.91 87 17.82 87 27 C70.5 27 54 27 37 27 C37 31.29 37 35.58 37 40 C50.2 40 63.4 40 77 40 C77 48.25 77 56.5 77 65 C63.8 65 50.6 65 37 65 C37 68.96 37 72.92 37 77 C54.16 77 71.32 77 89 77 C89 85.91 89 94.82 89 104 C59.63 104 30.26 104 0 104 C0 69.68 0 35.36 0 0 Z " fill="#FCFCFE" transform="translate(730,585)"/>
<path d="M0 0 C0.77943466 0.00222061 1.55886932 0.00444122 2.36192322 0.00672913 C3.24276077 0.00680466 4.12359833 0.00688019 5.03112793 0.00695801 C5.98841293 0.01211929 6.94569794 0.01728058 7.93199158 0.02259827 C9.39480812 0.02472069 9.39480812 0.02472069 10.88717651 0.02688599 C14.01542675 0.03250319 17.14360656 0.04505859 20.27183533 0.05775452 C22.38706867 0.0627673 24.50230313 0.06733059 26.61753845 0.07142639 C31.81482829 0.0824782 37.01207678 0.09923305 42.20933533 0.12025452 C45.08007712 7.04904559 47.58982196 14.03636889 49.89683533 21.17103577 C50.40628441 22.73254868 50.40628441 22.73254868 50.92602539 24.3256073 C52.02388811 27.69355245 53.1168912 31.06304822 54.20933533 34.43275452 C54.96622353 36.7616743 55.72330513 39.09053125 56.48057556 41.41932678 C57.62439199 44.93747668 58.76778866 48.45575929 59.90963745 51.97454834 C61.95853158 58.28634917 64.01932716 64.59392918 66.10157776 70.89480591 C67.23466675 74.32360159 68.3625694 77.75409115 69.48985291 81.18479919 C70.00787805 82.75676615 70.5283554 84.3279273 71.05137634 85.89823914 C71.76830437 88.05212944 72.47618449 90.20879296 73.18199158 92.36634827 C73.57652527 93.55929504 73.97105896 94.75224182 74.37754822 95.9813385 C75.20933533 99.12025452 75.20933533 99.12025452 75.20933533 104.12025452 C62.99933533 104.12025452 50.78933533 104.12025452 38.20933533 104.12025452 C34.20933533 89.12025452 34.20933533 89.12025452 34.20933533 84.12025452 C24.96933533 84.45025452 15.72933533 84.78025452 6.20933533 85.12025452 C4.93519643 90.62425305 4.93519643 90.62425305 3.66661072 96.12953186 C3.5066864 96.81482971 3.34676208 97.50012756 3.18199158 98.20619202 C3.01965027 98.90792542 2.85730896 99.60965881 2.69004822 100.33265686 C2.20933533 102.12025452 2.20933533 102.12025452 1.20933533 104.12025452 C-11.00066467 104.12025452 -23.21066467 104.12025452 -35.79066467 104.12025452 C-30.98462174 87.78126388 -25.75051652 71.60585621 -20.41566467 55.43275452 C-18.78146833 50.47096953 -17.14903494 45.50860675 -15.51722717 40.54603577 C-15.12158569 39.34463959 -14.72594421 38.14324341 -14.3183136 36.90544128 C-11.2245414 27.49278457 -8.19980842 18.0589632 -5.23320007 8.60543823 C-4.92522491 7.63217087 -4.61724976 6.6589035 -4.29994202 5.65614319 C-3.89695389 4.37280342 -3.89695389 4.37280342 -3.48582458 3.0635376 C-2.44874969 0.16444911 -2.44874969 0.16444911 0 0 Z " fill="#FDFDFE" transform="translate(423.79066467285156,584.8797454833984)"/>
<path d="M0 0 C14.85 0 29.7 0 45 0 C57.14540338 36.29974494 57.14540338 36.29974494 61.3371582 49.65576172 C64.48993949 59.64894388 67.84171713 69.57676364 71.18188477 79.50854492 C78 99.81004305 78 99.81004305 78 104 C65.79 104 53.58 104 41 104 C36 87 36 87 36 84 C26.76 84 17.52 84 8 84 C7.09593385 89.08424828 7.09593385 89.08424828 6.20556641 94.17089844 C5.52749755 97.88390998 4.70728048 100.58543904 3 104 C-8.88 104 -20.76 104 -33 104 C-30.74748 93.86365998 -30.74748 93.86365998 -29.30078125 89.35546875 C-28.82282104 87.86080078 -28.82282104 87.86080078 -28.33520508 86.3359375 C-27.9977124 85.29695312 -27.66021973 84.25796875 -27.3125 83.1875 C-26.96018311 82.09308594 -26.60786621 80.99867188 -26.24487305 79.87109375 C-23.76379111 72.21473864 -21.13705611 64.61840011 -18.43481445 57.0378418 C-16.38036311 51.22503258 -14.59822596 45.3699391 -12.91552734 39.44042969 C-11.06090343 32.99837008 -8.85969174 26.69364637 -6.5859375 20.38867188 C-4.16364872 13.63442945 -2.11914562 6.88722325 0 0 Z " fill="#FEFCFE" transform="translate(100,585)"/>
<path d="M0 0 C3.53032474 0.41533232 7.04376948 0.83427293 10.546875 1.44140625 C48.04746944 7.87731908 90.06906646 8.12804858 127.40625 0.5859375 C131.00490444 -0.00079964 134.36097275 -0.1031683 138 0 C141.84514925 23.75932836 141.84514925 23.75932836 143.25 33.125 C143.47429687 34.61386719 143.47429687 34.61386719 143.703125 36.1328125 C144.60946512 44.88614996 144.60946512 44.88614996 142.1875 49.3125 C139.70377522 52.36393331 138.0971302 53.80374672 134.19116211 54.50244141 C133.06460205 54.61765137 131.93804199 54.73286133 130.77734375 54.8515625 C129.52453613 54.98127441 128.27172852 55.11098633 126.98095703 55.24462891 C125.63328765 55.37299989 124.28546403 55.4997608 122.9375 55.625 C122.26104431 55.68870789 121.58458862 55.75241577 120.88763428 55.8180542 C116.26103947 56.24834249 111.63215924 56.63454365 107 57 C105.99501465 57.08121094 104.9900293 57.16242188 103.95458984 57.24609375 C91.15646342 58.16645067 91.15646342 58.16645067 86.421875 55.60546875 C84.42235344 53.85397945 82.74691807 51.9988377 81 50 C77.31614856 47.08752254 74.12870474 45.22170986 69.5 44.3125 C64.03624775 45.38573705 60.35897702 48.63687516 56.47265625 52.5300293 C52.87962026 55.9626619 50.4100786 57.70760212 45.20166016 57.6809082 C44.4751123 57.6418335 43.74856445 57.60275879 43 57.5625 C42.21544434 57.53953857 41.43088867 57.51657715 40.62255859 57.49291992 C37.74352138 57.3796082 34.87469122 57.19486456 32 57 C30.73575195 56.92072266 29.47150391 56.84144531 28.16894531 56.75976562 C24.68490443 56.53398674 21.20509583 56.27091375 17.72558594 55.9838562 C16.33187286 55.87016346 14.93764379 55.76261872 13.54296875 55.66140747 C11.56059671 55.5126052 9.58092443 55.32910477 7.6015625 55.14453125 C6.44994629 55.04503174 5.29833008 54.94553223 4.11181641 54.84301758 C0.2201603 53.78873478 -1.39909831 52.01351351 -4 49 C-4.33 48.67 -4.66 48.34 -5 48 C-5.68335753 39.16767939 -4.5027491 30.38241194 -3.34594727 21.64257812 C-3.05935162 19.47620138 -2.78368901 17.30863728 -2.50976562 15.140625 C-1.04478367 3.72149738 -1.04478367 3.72149738 0 0 Z " fill="#FDFCFE" transform="translate(206,402)"/>
<path d="M0 0 C1.54686745 -0.02398109 1.54686745 -0.02398109 3.12498474 -0.04844666 C4.80153893 -0.05649071 4.80153893 -0.05649071 6.51196289 -0.06469727 C8.22833702 -0.07823997 8.22833702 -0.07823997 9.97938538 -0.09205627 C12.40289686 -0.10658427 14.82644778 -0.11545181 17.25 -0.11914062 C20.96624475 -0.13104466 24.68083413 -0.18021515 28.39672852 -0.23071289 C30.74763184 -0.2401755 33.0985454 -0.24741131 35.44946289 -0.25219727 C37.12298073 -0.28149574 37.12298073 -0.28149574 38.83030701 -0.31138611 C41.65811153 -0.29477099 44.27307369 -0.24186377 47.04711914 0.30639648 C50.13436537 3.62838006 50.62121601 7.13032113 51.29711914 11.55639648 C51.46727539 12.61342773 51.63743164 13.67045898 51.81274414 14.75952148 C51.89008789 15.59999023 51.96743164 16.44045898 52.04711914 17.30639648 C51.04711914 18.30639648 51.04711914 18.30639648 48.64903259 18.426651 C47.58535965 18.42443039 46.52168671 18.42220978 45.42578125 18.41992188 C44.22461166 18.41984634 43.02344208 18.41977081 41.78587341 18.41969299 C40.47860794 18.41453171 39.17134247 18.40937042 37.82446289 18.40405273 C36.48067782 18.40218847 35.13689207 18.40076461 33.79310608 18.39976501 C30.25029638 18.3959405 26.70752744 18.3861108 23.16473389 18.37506104 C19.55196687 18.36484548 15.9391933 18.36026709 12.32641602 18.35522461 C5.23330034 18.34448846 -1.8597876 18.32741285 -8.95288086 18.30639648 C-9.88764442 14.21245039 -9.80968296 11.6809744 -8.64038086 7.61889648 C-8.37612305 6.6662793 -8.11186523 5.71366211 -7.83959961 4.73217773 C-6.21276604 0.2816771 -4.41702837 0.05162814 0 0 Z " fill="#3B34EB" transform="translate(676.952880859375,485.693603515625)"/>
<path d="M0 0 C4.57177056 2.14934878 8.08442495 5.26740283 10 10 C10.66647819 15.04619203 9.80491607 18.80440859 7.3984375 23.19921875 C4.21978597 27.29239851 -0.15737603 28.70518016 -5.125 29.5 C-9.92428267 28.66534215 -12.84397511 26.09353706 -16.3125 22.8125 C-18.64616172 18.9230638 -19.3180221 15.52211917 -19 11 C-17.70332697 6.88447257 -15.48037478 4.43568875 -12.3125 1.5625 C-8.01933497 -0.46257784 -4.66318459 -0.94074681 0 0 Z " fill="#FAF8FE" transform="translate(477,402)"/>
<path d="M0 0 C3.62011046 2.33296007 5.89022378 4.96794755 7.8125 8.8125 C8.49527011 13.6016446 8.41750222 17.58374667 5.6875 21.6875 C2.21582614 25.89056583 -1.27120722 27.5729634 -6.6875 28.25 C-11.92746601 27.59500425 -14.67218871 25.12842823 -18.5625 21.75 C-21.0783141 17.20218221 -20.91808881 12.88934673 -20.1875 7.8125 C-18.3817807 3.92325842 -16.92002453 2.30084969 -13.375 -0.0625 C-8.46793432 -1.79440553 -4.88252524 -1.81897999 0 0 Z " fill="#FAF9FE" transform="translate(525.1875,403.1875)"/>
<path d="M0 0 C3.5520858 2.31657769 5.60510254 4.26986875 7.875 7.875 C8.70561629 12.24748954 8.17495606 15.90014279 6.875 20.125 C4.13764897 23.88885766 1.13444535 26.02819251 -3.125 27.875 C-7.53673432 28.55957946 -9.4421717 28.24267678 -13.375 26.125 C-17.38852883 22.84120368 -19.63259442 20.0912187 -20.43359375 14.859375 C-20.69853696 10.26702607 -20.37371797 7.54049363 -17.375 3.9375 C-12.36908824 -1.40972392 -6.98169653 -2.51341075 0 0 Z " fill="#FCFAFE" transform="translate(387.125,403.125)"/>
<path d="M0 0 C4.78784068 1.72362265 8.71739615 4.34737343 11 9 C11.94709487 14.06489864 11.59053539 17.84001976 9.25 22.4375 C5.2080993 27.04077579 2.44221809 28.62821515 -3.68359375 29.1328125 C-8.44662366 28.85972141 -11.69636692 26.43399639 -14.875 22.9375 C-17.26621639 18.819294 -17.62680311 14.65246816 -17 10 C-13.3640833 2.72816659 -8.22408457 -1.02801057 0 0 Z " fill="#FCFAFE" transform="translate(430,402)"/>
<path d="M0 0 C3.62011046 2.33296007 5.89022378 4.96794755 7.8125 8.8125 C8.50833714 13.69330053 8.39984301 17.60713106 5.5625 21.75 C2.99410456 25.10318293 0.43886423 26.55347721 -3.73828125 27.21875 C-8.83424465 27.39173886 -12.28807205 27.35785603 -16.3125 24 C-19.66934689 20.74755265 -20.38978368 17.65278216 -20.625 13.0625 C-20.58879452 8.10959102 -19.25405911 5.72080452 -15.890625 2.1875 C-10.89099237 -1.84890066 -6.04128125 -2.25067341 0 0 Z " fill="#FCFBFE" transform="translate(571.1875,403.1875)"/>
<path d="M0 0 C2.52710145 1.39849304 4.32759203 2.57759203 6.375 4.625 C6.375 7 6.375 7 5.375 9.625 C-0.95210894 14.65792757 -6.52800416 16.12755495 -14.47265625 16.01953125 C-20.25049275 15.29640673 -25.50366008 12.74633992 -29.625 8.625 C-29.75 6.3125 -29.75 6.3125 -28.625 3.625 C-20.17199154 -3.14872776 -9.88659885 -4.89293102 0 0 Z " fill="#8A26DD" transform="translate(320.625,424.375)"/>
<path d="M0 0 C3.01125 -0.0825 6.0225 -0.165 9.125 -0.25 C10.06230957 -0.28641602 10.99961914 -0.32283203 11.96533203 -0.36035156 C17.63039899 -0.43516182 20.67553897 0.26963425 25 4 C26.53214888 7.06429776 26.22938548 9.6165642 26 13 C24.6875 15.875 24.6875 15.875 23 18 C20.11734851 18.96088383 18.32337729 19.11670941 15.33203125 19.09765625 C14.43935547 19.09443359 13.54667969 19.09121094 12.62695312 19.08789062 C11.23379883 19.07532227 11.23379883 19.07532227 9.8125 19.0625 C8.87212891 19.05798828 7.93175781 19.05347656 6.96289062 19.04882812 C4.64189992 19.03704645 2.32094193 19.01911114 0 19 C0 12.73 0 6.46 0 0 Z " fill="#4B31E8" transform="translate(542,611)"/>
<path d="M0 0 C2.84625 -0.061875 5.6925 -0.12375 8.625 -0.1875 C9.51010254 -0.21481201 10.39520508 -0.24212402 11.30712891 -0.27026367 C16.28219813 -0.32233226 19.7215708 0.17623673 24 3 C26.48386059 6.72579089 26.3804212 8.58711402 26 13 C24.6875 15.875 24.6875 15.875 23 18 C20.11734851 18.96088383 18.32337729 19.11670941 15.33203125 19.09765625 C14.43935547 19.09443359 13.54667969 19.09121094 12.62695312 19.08789062 C11.23379883 19.07532227 11.23379883 19.07532227 9.8125 19.0625 C8.87212891 19.05798828 7.93175781 19.05347656 6.96289062 19.04882812 C4.64189992 19.03704645 2.32094193 19.01911114 0 19 C0 12.73 0 6.46 0 0 Z " fill="#1A3AF1" transform="translate(865,611)"/>
<path d="M0 0 C2.0321722 1.89322025 2.47401857 2.98830907 2.828125 5.703125 C-3.81731212 11.54305459 -9.35439914 13.33059615 -18.08984375 13.1328125 C-23.82894942 12.3326837 -29.06846084 9.80653916 -33.171875 5.703125 C-33.234375 3.328125 -33.234375 3.328125 -32.171875 0.703125 C-22.70557898 -6.78070065 -9.82555057 -6.27567424 0 0 Z " fill="#9622DA" transform="translate(256.171875,427.296875)"/>
<path d="M0 0 C2.660625 -0.061875 5.32125 -0.12375 8.0625 -0.1875 C8.8862915 -0.21481201 9.71008301 -0.24212402 10.55883789 -0.27026367 C15.78519237 -0.3284664 19.37782873 0.51761153 24 3 C25.22691067 5.45382134 25.20175931 7.19984103 25.25 9.9375 C25.27578125 10.81277344 25.3015625 11.68804688 25.328125 12.58984375 C24.93770992 15.45753546 24.25322599 16.25539055 22 18 C19.59940183 19.20029908 18.10639351 19.11459743 15.4296875 19.09765625 C14.53378906 19.09443359 13.63789063 19.09121094 12.71484375 19.08789062 C11.77769531 19.07951172 10.84054688 19.07113281 9.875 19.0625 C8.93011719 19.05798828 7.98523438 19.05347656 7.01171875 19.04882812 C4.6744523 19.03702375 2.33721831 19.01908799 0 19 C0 12.73 0 6.46 0 0 Z " fill="#8624DD" transform="translate(221,611)"/>
<path d="M0 0 C1.8577453 2.78661794 2.47602619 4.33378638 3.21875 7.5 C3.42798096 8.38276611 3.63721191 9.26553223 3.8527832 10.17504883 C4.06636475 11.10728271 4.27994629 12.0395166 4.5 13 C4.72067139 13.94447998 4.94134277 14.88895996 5.16870117 15.86206055 C6.63618562 22.21350815 7.94366488 28.56595884 9 35 C3.39 35 -2.22 35 -8 35 C-7.42558427 28.55879891 -6.28463669 22.60080029 -4.5625 16.375 C-4.34529297 15.56804688 -4.12808594 14.76109375 -3.90429688 13.9296875 C-2.64590554 9.27401744 -1.33555402 4.63406186 0 0 Z " fill="#9F2BDB" transform="translate(122,612)"/>
<path d="M0 0 C2 1 2 1 2.65429688 2.83496094 C2.84056641 3.62676758 3.02683594 4.41857422 3.21875 5.234375 C3.42798096 6.11327393 3.63721191 6.99217285 3.8527832 7.89770508 C4.06636475 8.8389624 4.27994629 9.78021973 4.5 10.75 C4.72067139 11.69834717 4.94134277 12.64669434 5.16870117 13.6237793 C6.78923594 20.72455829 8.04273224 27.77697961 9 35 C3.39 35 -2.22 35 -8 35 C-6.63200905 26.99791703 -4.88765222 19.17532553 -2.875 11.3125 C-2.59785156 10.21744141 -2.32070313 9.12238281 -2.03515625 7.99414062 C-1.36003585 5.32857906 -0.68160672 2.66390888 0 0 Z " fill="#6536E5" transform="translate(443,612)"/>
<title>Title</title></svg>
